0
SECTION
2
HEADER
9
$INSUNITS
70
4
9
$ACADVER
1
AC1014
9
$HANDSEED
5
FFFF
0
ENDSEC
0
SECTION
2
TABLES
0
TABLE
2
VPORT
5
8
100
AcDbSymbolTable
0
ENDTAB
0
TABLE
2
LTYPE
5
5
100
AcDbSymbolTable
0
LTYPE
5
14
100
AcDbSymbolTableRecord
100
AcDbLinetypeTableRecord
2
BYBLOCK
70
0
0
LTYPE
5
15
100
AcDbSymbolTableRecord
100
AcDbLinetypeTableRecord
2
BYLAYER
70
0
0
LTYPE
5
16
100
AcDbSymbolTableRecord
100
AcDbLinetypeTableRecord
2
DASHED
70
0
3
Dashed __ __ __ __ __ __ __ __ __ __ __ __ __ _
72
65
73
2
40
0.75
49
0.5
74
0
49
-0.25
74
0
0
ENDTAB
0
TABLE
2
LAYER
5
2
100
AcDbSymbolTable
70
2
0
LAYER
5
50
100
AcDbSymbolTableRecord
100
AcDbLayerTableRecord
2
0
70
0
62
7
6
CONTINUOUS
0
ENDTAB
0
TABLE
2
STYLE
5
3
100
AcDbSymbolTable
70
1
0
STYLE
5
11
100
AcDbSymbolTableRecord
100
AcDbTextStyleTableRecord
2
STANDARD
70
0
0
ENDTAB
0
TABLE
2
VIEW
5
6
100
AcDbSymbolTable
70
0
0
ENDTAB
0
TABLE
2
UCS
5
7
100
AcDbSymbolTable
70
0
0
ENDTAB
0
TABLE
2
APPID
5
9
100
AcDbSymbolTable
70
2
0
APPID
5
12
100
AcDbSymbolTableRecord
100
AcDbRegAppTableRecord
2
ACAD
70
0
0
ENDTAB
0
TABLE
2
DIMSTYLE
5
A
100
AcDbSymbolTable
70
1
0
ENDTAB
0
TABLE
2
BLOCK_RECORD
5
1
100
AcDbSymbolTable
70
1
0
BLOCK_RECORD
5
1F
100
AcDbSymbolTableRecord
100
AcDbBlockTableRecord
2
*MODEL_SPACE
0
BLOCK_RECORD
5
1B
100
AcDbSymbolTableRecord
100
AcDbBlockTableRecord
2
*PAPER_SPACE
0
ENDTAB
0
ENDSEC
0
SECTION
2
BLOCKS
0
BLOCK
5
20
100
AcDbEntity
100
AcDbBlockBegin
2
*MODEL_SPACE
0
ENDBLK
5
21
100
AcDbEntity
100
AcDbBlockEnd
0
BLOCK
5
1C
100
AcDbEntity
100
AcDbBlockBegin
2
*PAPER_SPACE
0
ENDBLK
5
1D
100
AcDbEntity
100
AcDbBlockEnd
0
ENDSEC
0
SECTION
2
ENTITIES
0
LWPOLYLINE
5
100
100
AcDbEntity
8
0
100
AcDbPolyline
90
8
70
1
43
0.0
10
-65.556755999999993
20
51.468744999999998
10
-86.556755999999979
20
51.468744999999998
10
-86.556755999999979
20
74.068744999999993
10
-80.556756000000348
20
74.068744999999993
10
-80.556755999999382
20
77.268744999999996
10
-71.556755999999993
20
77.268744999999996
10
-71.556755999999993
20
74.068744999999993
10
-65.556755999999993
20
74.068744999999993
0
LWPOLYLINE
5
101
100
AcDbEntity
8
0
100
AcDbPolyline
90
8
70
1
43
0.0
10
-211.56859999999998
20
74.068744999999993
10
-205.56860000000003
20
74.068744999999993
10
-205.56860000000003
20
51.468744999999998
10
-226.5686
20
51.468744999999998
10
-226.56859999999998
20
74.068744999999993
10
-220.56859999999512
20
74.068744999999993
10
-220.5686000000081
20
77.268744999999996
10
-211.56859999999998
20
77.268744999999996
0
LWPOLYLINE
5
102
100
AcDbEntity
8
0
100
AcDbPolyline
90
8
70
1
43
0.0
10
-62.562950967067188
20
42.972801000000004
42
0.414213473669507
10
-50.562952000008146
20
54.972798929344663
10
-50.562950999999927
20
141.97279993678114
42
0.41421366407210208
10
-62.562952219967094
20
153.97279999992085
10
-229.56293899387367
20
153.97280000000001
42
0.41421596891164114
10
-241.56294999997777
20
141.97278357666409
10
-241.56294999999909
20
54.972769421084934
42
0.41420767221549842
10
-229.56298950236084
20
42.972800000090636
0
CIRCLE
5
103
100
AcDbEntity
8
0
100
AcDbCircle
10
-62.562949558221021
20
141.97280144169997
30
0
40
1.0999999999999943
210
0
220
0
230
1
0
CIRCLE
5
104
100
AcDbEntity
8
0
100
AcDbCircle
10
-146.05200000000002
20
118.971
30
0
40
3.9999999999999858
210
0
220
0
230
1
0
CIRCLE
5
105
100
AcDbEntity
8
0
100
AcDbCircle
10
-62.562950999999998
20
54.972799999999999
30
0
40
1.0999999999999943
210
0
220
0
230
1
0
CIRCLE
5
106
100
AcDbEntity
8
0
100
AcDbCircle
10
-229.56294999999997
20
54.972799999999999
30
0
40
1.0999999999999943
210
0
220
0
230
1
0
CIRCLE
5
107
100
AcDbEntity
8
0
100
AcDbCircle
10
-229.56298558370003
20
141.9728355837
30
0
40
1.0999999999999943
210
0
220
0
230
1
0
LWPOLYLINE
5
108
100
AcDbEntity
8
0
100
AcDbPolyline
90
4
70
1
43
0.0
10
-92.727000000000004
20
148.46599999999998
10
-92.727000000000004
20
128.46599999999998
10
-132.727
20
128.46599999999998
10
-132.727
20
148.46599999999998
0
LWPOLYLINE
5
109
100
AcDbEntity
8
0
100
AcDbPolyline
90
4
70
1
43
0.0
10
-186.06200000000001
20
110.351
10
-186.06200000000001
20
90.350999999999999
10
-206.06200000000001
20
90.350999999999999
10
-206.06200000000001
20
110.351
0
LWPOLYLINE
5
110
100
AcDbEntity
8
0
100
AcDbPolyline
90
4
70
1
43
0.0
10
-152.732
20
110.351
10
-152.732
20
90.350999999999999
10
-172.732
20
90.350999999999999
10
-172.732
20
110.351
0
LWPOLYLINE
5
111
100
AcDbEntity
8
0
100
AcDbPolyline
90
4
70
1
43
0.0
10
-119.37844699999999
20
110.35455300000001
10
-119.37844699999999
20
90.35455300000001
10
-139.37844699999999
20
90.35455300000001
10
-139.37844699999999
20
110.35455300000001
0
LWPOLYLINE
5
112
100
AcDbEntity
8
0
100
AcDbPolyline
90
4
70
1
43
0.0
10
-86.028447
20
110.381
10
-86.028447
20
90.381
10
-106.028447
20
90.381
10
-106.028447
20
110.381
0
LWPOLYLINE
5
113
100
AcDbEntity
8
0
100
AcDbPolyline
90
4
70
1
43
0.0
10
-159.40199999999999
20
148.46599999999998
10
-159.40199999999999
20
128.46599999999998
10
-199.40199999999999
20
128.46599999999998
10
-199.40199999999999
20
148.46599999999998
0
LWPOLYLINE
5
114
100
AcDbEntity
8
0
100
AcDbPolyline
90
4
70
1
43
0.0
10
-136.06200099999998
20
68.341000999999991
10
-136.06200099999998
20
48.341000999999999
10
-156.06200099999998
20
48.341000999999999
10
-156.06200099999998
20
68.341000999999991
0
ENDSEC
0
SECTION
2
OBJECTS
0
DICTIONARY
5
C
100
AcDbDictionary
3
ACAD_GROUP
350
D
3
ACAD_MLINESTYLE
350
17
0
DICTIONARY
5
D
100
AcDbDictionary
0
DICTIONARY
5
1A
330
C
100
AcDbDictionary
0
DICTIONARY
5
17
100
AcDbDictionary
0
ENDSEC
0
EOF
