0
SECTION
2
HEADER
9
$INSUNITS
70
4
0
ENDSEC
0
SECTION
2
TABLES
0
TABLE
2
LTYPE
0
LTYPE
72
65
70
64
2
CONTINUOUS
3
______
73
0
40
0
0
ENDTAB
0
TABLE
2
LAYER
0
ENDTAB
0
ENDSEC
0
SECTION
2
ENTITIES
0
LINE
8
0
10
3.025
20
-2.525
11
16.025
21
-2.525
0
LINE
8
0
10
3.025
20
-16.525
11
16.025
21
-16.525
0
LINE
8
0
10
2.525
20
-3.025
11
2.525
21
-16.025
0
LINE
8
0
10
16.525
20
-3.025
11
16.525
21
-16.025
0
ARC
8
0
10
3.025
20
-3.025
40
0.5
50
90
51
180
0
ARC
8
0
10
16.025
20
-3.025
40
0.5
50
0
51
90
0
ARC
8
0
10
3.025
20
-16.025
40
0.5
50
180
51
270
0
ARC
8
0
10
16.025
20
-16.025
40
0.5
50
270
51
0
0
LINE
8
0
10
22.075
20
-2.525
11
35.075
21
-2.525
0
LINE
8
0
10
22.075
20
-16.525
11
35.075
21
-16.525
0
LINE
8
0
10
21.575
20
-3.025
11
21.575
21
-16.025
0
LINE
8
0
10
35.575
20
-3.025
11
35.575
21
-16.025
0
ARC
8
0
10
22.075
20
-3.025
40
0.5
50
90
51
180
0
ARC
8
0
10
35.075
20
-3.025
40
0.5
50
0
51
90
0
ARC
8
0
10
22.075
20
-16.025
40
0.5
50
180
51
270
0
ARC
8
0
10
35.075
20
-16.025
40
0.5
50
270
51
0
0
LINE
8
0
10
41.125
20
-2.525
11
54.125
21
-2.525
0
LINE
8
0
10
41.125
20
-16.525
11
54.125
21
-16.525
0
LINE
8
0
10
40.625
20
-3.025
11
40.625
21
-16.025
0
LINE
8
0
10
54.625
20
-3.025
11
54.625
21
-16.025
0
ARC
8
0
10
41.125
20
-3.025
40
0.5
50
90
51
180
0
ARC
8
0
10
54.125
20
-3.025
40
0.5
50
0
51
90
0
ARC
8
0
10
41.125
20
-16.025
40
0.5
50
180
51
270
0
ARC
8
0
10
54.125
20
-16.025
40
0.5
50
270
51
0
0
LINE
8
0
10
60.175
20
-2.525
11
73.175
21
-2.525
0
LINE
8
0
10
60.175
20
-16.525
11
73.175
21
-16.525
0
LINE
8
0
10
59.675
20
-3.025
11
59.675
21
-16.025
0
LINE
8
0
10
73.675
20
-3.025
11
73.675
21
-16.025
0
ARC
8
0
10
60.175
20
-3.025
40
0.5
50
90
51
180
0
ARC
8
0
10
73.175
20
-3.025
40
0.5
50
0
51
90
0
ARC
8
0
10
60.175
20
-16.025
40
0.5
50
180
51
270
0
ARC
8
0
10
73.175
20
-16.025
40
0.5
50
270
51
0
0
LINE
8
0
10
12.55
20
-40.625
11
25.55
21
-40.625
0
LINE
8
0
10
12.55
20
-54.625
11
25.55
21
-54.625
0
LINE
8
0
10
12.05
20
-41.125
11
12.05
21
-54.125
0
LINE
8
0
10
26.05
20
-41.125
11
26.05
21
-54.125
0
ARC
8
0
10
12.55
20
-41.125
40
0.5
50
90
51
180
0
ARC
8
0
10
25.55
20
-41.125
40
0.5
50
0
51
90
0
ARC
8
0
10
12.55
20
-54.125
40
0.5
50
180
51
270
0
ARC
8
0
10
25.55
20
-54.125
40
0.5
50
270
51
0
0
LINE
8
0
10
33.988
20
-53.625
11
27.988
21
-53.625
0
LINE
8
0
10
33.988
20
-38.625
11
27.988
21
-38.625
0
LINE
8
0
10
34.488
20
-53.125
11
34.488
21
-39.125
0
LINE
8
0
10
27.488
20
-53.125
11
27.488
21
-39.125
0
ARC
8
0
10
33.988
20
-53.125
40
0.5
50
270
51
0
0
ARC
8
0
10
27.988
20
-53.125
40
0.5
50
180
51
270
0
ARC
8
0
10
33.988
20
-39.125
40
0.5
50
0
51
90
0
ARC
8
0
10
27.988
20
-39.125
40
0.5
50
90
51
180
0
LINE
8
0
10
10.112
20
-53.625
11
4.112
21
-53.625
0
LINE
8
0
10
10.112
20
-38.625
11
4.112
21
-38.625
0
LINE
8
0
10
10.612
20
-53.125
11
10.612
21
-39.125
0
LINE
8
0
10
3.612
20
-53.125
11
3.612
21
-39.125
0
ARC
8
0
10
10.112
20
-53.125
40
0.5
50
270
51
0
0
ARC
8
0
10
4.112
20
-53.125
40
0.5
50
180
51
270
0
ARC
8
0
10
10.112
20
-39.125
40
0.5
50
0
51
90
0
ARC
8
0
10
4.112
20
-39.125
40
0.5
50
90
51
180
0
LINE
8
0
10
0
20
-57.15
11
76.2
21
-57.15
0
LINE
8
0
10
0
20
0
11
76.2
21
0
0
LINE
8
0
10
0
20
-57.15
11
0
21
0
0
LINE
8
0
10
76.2
20
-57.15
11
76.2
21
0
0
ENDSEC
0
EOF